HIERARCHY
ROOT hip
{
  OFFSET 0 0 0
  CHANNELS 6 Xposition Yposition Zposition Zrotation Yrotation Xrotation
  JOINT abdomen
  {
    OFFSET 0 20.6881 -0.73152
    CHANNELS 3 Zrotation Xrotation Yrotation
    JOINT chest
    {
      OFFSET 0 11.7043 -0.48768
      CHANNELS 3 Zrotation Xrotation Yrotation
      JOINT neck
      {
        OFFSET 0 22.1894 -2.19456
        CHANNELS 3 Zrotation Xrotation Yrotation
        JOINT head
        {
          OFFSET -0.24384 7.07133 1.2192
          CHANNELS 3 Zrotation Xrotation Yrotation
          JOINT leftEye
          {
            OFFSET 4.14528 8.04674 8.04672
            CHANNELS 3 Zrotation Xrotation Yrotation
            End Site
            {
              OFFSET 1 0 0
            }
          }
          JOINT rightEye
          {
            OFFSET -3.6576 8.04674 8.04672
            CHANNELS 3 Zrotation Xrotation Yrotation
            End Site
            {
              OFFSET 1 0 0
            }
          }
        }
      }
      JOINT rCollar
      {
        OFFSET -2.68224 19.2634 -4.8768
        CHANNELS 3 Zrotation Xrotation Yrotation
        JOINT rShldr
        {
          OFFSET -8.77824 -1.95073 1.46304
          CHANNELS 3 Zrotation Xrotation Yrotation
          JOINT rForeArm
          {
            OFFSET -28.1742 -1.7115 0.48768
            CHANNELS 3 Zrotation Xrotation Yrotation
            JOINT rHand
            {
              OFFSET -22.5879 0.773209 7.07136
              CHANNELS 3 Zrotation Xrotation Yrotation
              JOINT rThumb1
              {
                OFFSET -1.2192 -0.487915 3.41376
                CHANNELS 3 Zrotation Xrotation Yrotation
                JOINT rThumb2
                {
                  OFFSET -3.37035 -0.52449 3.41376
                  CHANNELS 3 Zrotation Xrotation Yrotation
                  End Site
                  {
                    OFFSET -1.78271 -1.18214 1.43049
                  }
                }
              }
              JOINT rIndex1
              {
                OFFSET -7.75947 0.938293 5.60832
                CHANNELS 3 Zrotation Xrotation Yrotation
                JOINT rIndex2
                {
                  OFFSET -2.54057 -0.884171 1.56538
                  CHANNELS 3 Zrotation Xrotation Yrotation
                  End Site
                  {
                    OFFSET -1.62519 -0.234802 1.16502
                  }
                }
              }
              JOINT rMid1
              {
                OFFSET -8.24714 1.18213 3.41376
                CHANNELS 3 Zrotation Xrotation Yrotation
                JOINT rMid2
                {
                  OFFSET -3.10165 -0.590103 1.0647
                  CHANNELS 3 Zrotation Xrotation Yrotation
                  End Site
                  {
                    OFFSET -2.48547 -0.328903 0.83742
                  }
                }
              }
              JOINT rRing1
              {
                OFFSET -8.82822 0.546677 1.51678
                CHANNELS 3 Zrotation Xrotation Yrotation
                JOINT rRing2
                {
                  OFFSET -2.60934 -0.819778 -0.0198488
                  CHANNELS 3 Zrotation Xrotation Yrotation
                  End Site
                  {
                    OFFSET -2.33842 -0.294052 0.168128
                  }
                }
              }
              JOINT rPinky1
              {
                OFFSET -8.27202 -0.0477905 -0.4584
                CHANNELS 3 Zrotation Xrotation Yrotation
                JOINT rPinky2
                {
                  OFFSET -1.82734 -0.647385 -0.700984
                  CHANNELS 3 Zrotation Xrotation Yrotation
                  End Site
                  {
                    OFFSET -1.69225 -0.51767 -0.607171
                  }
                }
              }
            }
          }
        }
      }
      JOINT lCollar
      {
        OFFSET 2.68224 19.2634 -4.8768
        CHANNELS 3 Zrotation Xrotation Yrotation
        JOINT lShldr
        {
          OFFSET 8.77824 -1.95073 1.46304
          CHANNELS 3 Zrotation Xrotation Yrotation
          JOINT lForeArm
          {
            OFFSET 28.1742 -1.7115 0.48768
            CHANNELS 3 Zrotation Xrotation Yrotation
            JOINT lHand
            {
              OFFSET 22.5879 0.773209 7.07136
              CHANNELS 3 Zrotation Xrotation Yrotation
              JOINT lThumb1
              {
                OFFSET 1.2192 -0.487915 3.41376
                CHANNELS 3 Zrotation Xrotation Yrotation
                JOINT lThumb2
                {
                  OFFSET 3.37035 -0.52449 3.41376
                  CHANNELS 3 Zrotation Xrotation Yrotation
                  End Site
                  {
                    OFFSET 1.78271 -1.18214 1.43049
                  }
                }
              }
              JOINT lIndex1
              {
                OFFSET 7.75947 0.938293 5.60832
                CHANNELS 3 Zrotation Xrotation Yrotation
                JOINT lIndex2
                {
                  OFFSET 2.54057 -0.884171 1.56538
                  CHANNELS 3 Zrotation Xrotation Yrotation
                  End Site
                  {
                    OFFSET 1.62519 -0.234802 1.16502
                  }
                }
              }
              JOINT lMid1
              {
                OFFSET 8.24714 1.18213 3.41376
                CHANNELS 3 Zrotation Xrotation Yrotation
                JOINT lMid2
                {
                  OFFSET 3.10165 -0.590103 1.0647
                  CHANNELS 3 Zrotation Xrotation Yrotation
                  End Site
                  {
                    OFFSET 2.48547 -0.328903 0.83742
                  }
                }
              }
              JOINT lRing1
              {
                OFFSET 8.82822 0.546677 1.51678
                CHANNELS 3 Zrotation Xrotation Yrotation
                JOINT lRing2
                {
                  OFFSET 2.60934 -0.819778 -0.0198488
                  CHANNELS 3 Zrotation Xrotation Yrotation
                  End Site
                  {
                    OFFSET 2.33842 -0.294052 0.168128
                  }
                }
              }
              JOINT lPinky1
              {
                OFFSET 8.27202 -0.0477905 -0.4584
                CHANNELS 3 Zrotation Xrotation Yrotation
                JOINT lPinky2
                {
                  OFFSET 1.82734 -0.647385 -0.700984
                  CHANNELS 3 Zrotation Xrotation Yrotation
                  End Site
                  {
                    OFFSET 1.69225 -0.51767 -0.607171
                  }
                }
              }
            }
          }
        }
      }
    }
  }
  JOINT rButtock
  {
    OFFSET -8.77824 4.35084 1.2192
    CHANNELS 3 Zrotation Xrotation Yrotation
    JOINT rThigh
    {
      OFFSET 0 -1.70687 -2.19456
      CHANNELS 3 Zrotation Xrotation Yrotation
      JOINT rShin
      {
        OFFSET 0 -36.8199 0.73152
        CHANNELS 3 Zrotation Xrotation Yrotation
        JOINT rFoot
        {
          OFFSET 0.73152 -45.1104 -5.12064
          CHANNELS 3 Zrotation Xrotation Yrotation
          End Site
          {
            OFFSET -1.1221 -3.69964 12.103
          }
        }
      }
    }
  }
  JOINT lButtock
  {
    OFFSET 8.77824 4.35084 1.2192
    CHANNELS 3 Zrotation Xrotation Yrotation
    JOINT lThigh
    {
      OFFSET 0 -1.70687 -2.19456
      CHANNELS 3 Zrotation Xrotation Yrotation
      JOINT lShin
      {
        OFFSET 0 -36.8199 0.73152
        CHANNELS 3 Zrotation Xrotation Yrotation
        JOINT lFoot
        {
          OFFSET -0.73152 -45.1104 -5.12064
          CHANNELS 3 Zrotation Xrotation Yrotation
          End Site
          {
            OFFSET 1.1221 -3.69964 12.103
          }
        }
      }
    }
  }
}
MOTION
Frames:	5
Frame Time:	0.03333333333333333
87.8615 78.9934 -25.921193 -229.48700000000002 97.4449 -222.644 4.69733 -2.63221 3.70024 -4.07979 0.64873 1.09779 -0.576635 5.97486 -3.8521700000000005 2.17227 -8.88799 -7.034880000000001 -0.0 0.0 0.0 -0.0 0.0 0.0 2.30553e-13 3.3270200000000005e-12 2.24633e-13 29.708700000000004 57.18690000000001 48.2743 -28.0697 -31.045600000000004 68.9189 -3.11124 43.6619 7.720119999999999 -1.90681e-10 6.33916e-10 5.21069e-10 -3.11088e-10 1.11276e-09 8.963409999999999e-10 -1.90679e-10 6.33915e-10 5.21051e-10 7.730910000000001 5.47488 0.417314 -1.90681e-10 6.33916e-10 5.21069e-10 2.9055400000000002 0.965183 0.102902 -1.90676e-10 6.33917e-10 5.21068e-10 10.2786 0.731801 0.0259123 -1.90689e-10 6.33919e-10 5.21072e-10 2.22167 -0.733487 -0.20892 2.3032e-13 3.32703e-12 2.24351e-13 -65.5181 44.2164 -36.7459 26.4331 -24.6 -58.6306 35.08 -78.241 42.4741 9.63928e-10 -6.32604e-10 3.0497e-10 1.6167e-09 -1.0885e-09 5.91941e-10 9.6392e-10 -6.32603e-10 3.04976e-10 -7.730910000000001 5.47488 -0.417314 9.63927e-10 -6.32603e-10 3.04974e-10 -2.9055400000000002 0.965183 -0.102902 9.63921e-10 -6.32603e-10 3.04971e-10 -10.2786 0.731801 -0.0259123 9.63934e-10 -6.32602e-10 3.04963e-10 -2.22167 -0.733487 0.20892 -2.03217e-16 0.0 -3.88251e-19 8.68595 -25.1489 -5.253020000000001 -0.188979 37.8467 0.981096 -8.4187 -20.4526 -18.872 2.03217e-16 0.0 3.88251e-19 22.663 -53.4323 19.8667 3.96427 77.6948 -4.36893 0.458572 6.08877 -1.5876300000000003
89.1567 78.6226 -25.753792999999998 -229.76900000000003 95.5755 -222.823 2.57022 -2.69804 2.73119 -3.08241 0.203539 0.7857980000000001 -0.968508 6.403240000000001 -3.71985 1.6558 -8.62028 -6.72551 -0.0 0.0 0.0 -0.0 0.0 0.0 1.0879099999999999e-13 1.73468e-12 7.90883e-14 33.3619 58.150600000000004 41.612 -28.1621 -31.7115 70.0112 -3.5134600000000002 45.7665 8.30293 5.20961e-09 -7.38852e-09 1.80504e-09 9.04272e-09 -1.2688e-08 2.92675e-09 5.20961e-09 -7.38852e-09 1.8050200000000002e-09 7.730910000000001 5.47488 0.417314 5.20961e-09 -7.38852e-09 1.80503e-09 2.9055400000000002 0.965183 0.102902 5.20962e-09 -7.38852e-09 1.80504e-09 10.2786 0.731801 0.0259123 5.209600000000001e-09 -7.38852e-09 1.80504e-09 2.22167 -0.733487 -0.20892 1.0871100000000001e-13 1.73468e-12 7.88682e-14 -65.5153 44.6793 -37.3169 26.6729 -25.3 -59.7461 41.1111 -79.3887 48.6213 4.36354e-09 -2.90371e-09 -8.960010000000001e-10 7.519210000000002e-09 -4.90983e-09 -1.26684e-09 4.36353e-09 -2.90371e-09 -8.960000000000001e-10 -7.730910000000001 5.47488 -0.417314 4.36354e-09 -2.90371e-09 -8.959970000000001e-10 -2.9055400000000002 0.965183 -0.102902 4.36353e-09 -2.90371e-09 -8.959990000000001e-10 -10.2786 0.731801 -0.0259123 4.36354e-09 -2.90371e-09 -8.960029999999999e-10 -2.22167 -0.733487 0.20892 -2.03217e-16 0.0 -3.88251e-19 6.8063400000000005 -25.2012 -6.1711 -0.203868 39.3837 1.1474 -9.43659 -21.592300000000005 -20.1923 2.03217e-16 0.0 3.88251e-19 25.1184 -55.3396 26.4923 2.70408 73.417 -3.08177 0.702256 4.80993 2.34273
90.6241 78.4774 -25.664092999999998 -240.09000000000003 93.6985 -232.95900000000003 1.37136 -2.938 1.98805 -2.83685 -0.140386 0.545348 -1.16152 6.60736 -3.7609000000000004 1.20311 -7.86324 -6.76518 -0.0 0.0 0.0 -0.0 0.0 0.0 8.84794e-14 1.07626e-12 1.16607e-14 37.7611 58.4891 34.2793 -28.285200000000003 -32.6866 71.5264 -3.7558100000000003 46.9008 8.64012 5.9095e-09 -8.41165e-09 1.7105100000000001e-09 1.02468e-08 -1.44434e-08 2.74174e-09 5.90951e-09 -8.41165e-09 1.71049e-09 7.730910000000001 5.47488 0.417314 5.9095e-09 -8.41165e-09 1.7105100000000001e-09 2.9055400000000002 0.965183 0.102902 5.90952e-09 -8.41165e-09 1.7105100000000001e-09 10.2786 0.731801 0.0259123 5.9095e-09 -8.41165e-09 1.7105200000000002e-09 2.22167 -0.733487 -0.20892 8.842e-14 1.07626e-12 1.14678e-14 -64.6505 45.8564 -38.4953 26.7657 -25.5865 -60.2446 38.4041 -78.9234 45.8657 4.79762e-09 -3.12551e-09 -1.11044e-09 8.27896e-09 -5.2941e-09 -1.61061e-09 4.79761e-09 -3.12552e-09 -1.11044e-09 -7.730910000000001 5.47488 -0.417314 4.79762e-09 -3.12552e-09 -1.11044e-09 -2.9055400000000002 0.965183 -0.102902 4.79762e-09 -3.12552e-09 -1.11044e-09 -10.2786 0.731801 -0.0259123 4.79763e-09 -3.12552e-09 -1.11044e-09 -2.22167 -0.733487 0.20892 -2.03217e-16 0.0 -3.88251e-19 5.68018 -24.5033 -6.78123 -0.209136 39.8691 1.25843 -10.4662 -22.5248 -21.598 2.03217e-16 0.0 3.88251e-19 26.905300000000004 -55.5982 32.422 1.7032 67.12 -2.03305 0.827317 5.000960000000001 4.25048
92.2753 78.4713 -25.530693 -268.654 92.8452 -261.474 1.09679 -3.35257 1.4706600000000003 -3.34054 -0.382995 0.376386 -1.15427 6.58709 -3.9753099999999995 0.8291710000000001 -6.61856 -7.15416 -0.0 0.0 0.0 -0.0 0.0 0.0 1.69618e-13 1.3517600000000003e-12 2.23501e-14 42.5625 58.1172 26.5918 -28.3833 -33.9188 73.5425 -3.79137 47.0687 8.69001 1.90901e-09 -2.43548e-09 2.37499e-10 3.30104e-09 -4.15338e-09 3.41323e-10 1.90901e-09 -2.43548e-09 2.37481e-10 7.730910000000001 5.47488 0.417314 1.90901e-09 -2.43548e-09 2.37495e-10 2.9055400000000002 0.965183 0.102902 1.90901e-09 -2.43548e-09 2.37499e-10 10.2786 0.731801 0.0259123 1.909e-09 -2.43548e-09 2.37506e-10 2.22167 -0.733487 -0.20892 1.69445e-13 1.35177e-12 2.21501e-14 -62.8025 47.7092 -40.4032 26.7345 -25.4908 -60.107800000000005 29.038300000000003 -76.6398 36.2849 2.26618e-09 -1.29801e-09 -3.3835100000000003e-10 3.89597e-09 -2.2413e-09 -4.3936399999999995e-10 2.26617e-09 -1.29802e-09 -3.3835200000000004e-10 -7.730910000000001 5.47488 -0.417314 2.26617e-09 -1.29802e-09 -3.38356e-10 -2.9055400000000002 0.965183 -0.102902 2.26617e-09 -1.29802e-09 -3.3835100000000003e-10 -10.2786 0.731801 -0.0259123 2.26618e-09 -1.29802e-09 -3.38359e-10 -2.22167 -0.733487 0.20892 -2.03217e-16 0.0 -3.88251e-19 5.32156 -23.0605 -7.08097 -0.195064 39.3032 1.30755 -11.4972 -23.2492 -23.0823 2.03217e-16 0.0 3.88251e-19 27.2435 -54.4238 36.9953 1.03065 58.8029 -1.28141 0.706113 6.67589 4.14892
94.1007 78.4983 -25.460893000000002 -300.623 93.0459 -293.369 0.80818 -4.04138 1.26766 -3.74737 -0.368385 0.3182 -1.07957 6.46074 -4.2148 0.52732 -5.21844 -7.582420000000001 -0.0 0.0 0.0 -0.0 0.0 0.0 1.39052e-13 7.460640000000001e-13 4.13216e-15 47.5607 57.107 18.8817 -28.4289 -35.0832 75.4786 -3.7679199999999997 46.9689 8.65866 -1.6744299999999998e-09 2.22135e-09 -7.29727e-10 -2.91049e-09 3.84318e-09 -1.19903e-09 -1.67442e-09 2.22135e-09 -7.29741e-10 7.730910000000001 5.47488 0.417314 -1.6744299999999998e-09 2.22135e-09 -7.29731e-10 2.9055400000000002 0.965183 0.102902 -1.67442e-09 2.22135e-09 -7.29728e-10 10.2786 0.731801 0.0259123 -1.6744399999999999e-09 2.22135e-09 -7.29722e-10 2.22167 -0.733487 -0.20892 1.38921e-13 7.4607e-13 3.94347e-15 -61.6484 49.3041 -41.871100000000006 26.528 -24.8698 -59.0082 21.1653 -73.4252 28.1427 -1.63031e-10 1.26041e-10 1.02462e-10 -2.93955e-10 1.9815e-10 1.76933e-10 -1.6304e-10 1.26033e-10 1.02462e-10 -7.730910000000001 5.47488 -0.417314 -1.63035e-10 1.26032e-10 1.02455e-10 -2.9055400000000002 0.965183 -0.102902 -1.63037e-10 1.2603e-10 1.02462e-10 -10.2786 0.731801 -0.0259123 -1.63025e-10 1.26031e-10 1.02452e-10 -2.22167 -0.733487 0.20892 -2.03217e-16 0.0 -3.88251e-19 5.02098 -21.4628 -7.34807 -0.184405 38.8145 1.33476 -12.5273 -23.9141 -24.5054 2.03217e-16 0.0 3.88251e-19 26.515600000000003 -52.4912 40.0158 0.756137 52.9104 -0.9279080000000001 0.570957 8.6409 4.15778
